<svg width="794" height="1123" data-generator-name="Scale Master" data-generator-version="0.4.5" xmlns="http://www.w3.org/2000/svg" xmlns:xlink="http://www.w3.org/1999/xlink" data-image-size="A4" data-image-orientation="portrait">
 <!-- Created with Scale Master -->
 <title>М42100 74.2x59.3мм 10A</title>
 <desc>Измерительная головка М42100 74.2x59.3мм 10A</desc>
 <rect fill="#ffffff" height="100%" width="100%" id="background"/>
 <g transform="translate(397,562)" fill="none" id="scale_wrapper" stroke="#000000">
  <g data-angle="88.4" data-length="11.3386" data-r="166.2992" stroke="#000000" stroke-width="1.1339" title="divs" class="div" data-lev2-each="5" data-lev2-length="11.3386" data-lev2-stroke-width="1.5118" data-linearity-exponent="1" data-lev2-stroke="#000000">
   <line x1="0" y1="-166.2992" x2="0" y2="-185.1969" data-length="11.3386" stroke-width="1.8898" stroke="#000000" transform="rotate(-44.2)"/>
   <line x1="0" y1="-166.2992" x2="0" y2="-177.6378" data-length="11.3386" transform="rotate(-42.432)"/>
   <line x1="0" y1="-166.2992" x2="0" y2="-177.6378" data-length="11.3386" transform="rotate(-40.664)"/>
   <line x1="0" y1="-166.2992" x2="0" y2="-177.6378" data-length="11.3386" transform="rotate(-38.896)"/>
   <line x1="0" y1="-166.2992" x2="0" y2="-177.6378" data-length="11.3386" transform="rotate(-37.128)"/>
   <line x1="0" y1="-166.2992" x2="0" y2="-185.1969" data-length="11.3386" transform="rotate(-35.36)" stroke-width="1.8898" stroke="#000000"/>
   <line x1="0" y1="-166.2992" x2="0" y2="-177.6378" data-length="11.3386" transform="rotate(-33.592)"/>
   <line x1="0" y1="-166.2992" x2="0" y2="-177.6378" data-length="11.3386" transform="rotate(-31.824)"/>
   <line x1="0" y1="-166.2992" x2="0" y2="-177.6378" data-length="11.3386" transform="rotate(-30.056)"/>
   <line x1="0" y1="-166.2992" x2="0" y2="-177.6378" data-length="11.3386" transform="rotate(-28.288)"/>
   <line x1="0" y1="-166.2992" x2="0" y2="-185.1969" data-length="11.3386" transform="rotate(-26.52)" stroke-width="1.8898" stroke="#000000"/>
   <line x1="0" y1="-166.2992" x2="0" y2="-177.6378" data-length="11.3386" transform="rotate(-24.752)"/>
   <line x1="0" y1="-166.2992" x2="0" y2="-177.6378" data-length="11.3386" transform="rotate(-22.984)"/>
   <line x1="0" y1="-166.2992" x2="0" y2="-177.6378" data-length="11.3386" transform="rotate(-21.216)"/>
   <line x1="0" y1="-166.2992" x2="0" y2="-177.6378" data-length="11.3386" transform="rotate(-19.448)"/>
   <line x1="0" y1="-166.2992" x2="0" y2="-185.1969" data-length="11.3386" transform="rotate(-17.68)" stroke-width="1.8898" stroke="#000000"/>
   <line x1="0" y1="-166.2992" x2="0" y2="-177.6378" data-length="11.3386" transform="rotate(-15.912)"/>
   <line x1="0" y1="-166.2992" x2="0" y2="-177.6378" data-length="11.3386" transform="rotate(-14.144)"/>
   <line x1="0" y1="-166.2992" x2="0" y2="-177.6378" data-length="11.3386" transform="rotate(-12.376)"/>
   <line x1="0" y1="-166.2992" x2="0" y2="-177.6378" data-length="11.3386" transform="rotate(-10.608)"/>
   <line x1="0" y1="-166.2992" x2="0" y2="-185.1969" data-length="11.3386" transform="rotate(-8.84)" stroke-width="1.8898" stroke="#000000"/>
   <line x1="0" y1="-166.2992" x2="0" y2="-177.6378" data-length="11.3386" transform="rotate(-7.072)"/>
   <line x1="0" y1="-166.2992" x2="0" y2="-177.6378" data-length="11.3386" transform="rotate(-5.304)"/>
   <line x1="0" y1="-166.2992" x2="0" y2="-177.6378" data-length="11.3386" transform="rotate(-3.536)"/>
   <line x1="0" y1="-166.2992" x2="0" y2="-177.6378" data-length="11.3386" transform="rotate(-1.768)"/>
   <line x1="0" y1="-166.2992" x2="0" y2="-185.1969" data-length="11.3386" stroke-width="1.8898" stroke="#000000"/>
   <line x1="0" y1="-166.2992" x2="0" y2="-177.6378" data-length="11.3386" transform="rotate(1.768)"/>
   <line x1="0" y1="-166.2992" x2="0" y2="-177.6378" data-length="11.3386" transform="rotate(3.536)"/>
   <line x1="0" y1="-166.2992" x2="0" y2="-177.6378" data-length="11.3386" transform="rotate(5.304)"/>
   <line x1="0" y1="-166.2992" x2="0" y2="-177.6378" data-length="11.3386" transform="rotate(7.072)"/>
   <line x1="0" y1="-166.2992" x2="0" y2="-185.1969" data-length="11.3386" transform="rotate(8.84)" stroke-width="1.8898" stroke="#000000"/>
   <line x1="0" y1="-166.2992" x2="0" y2="-177.6378" data-length="11.3386" transform="rotate(10.608)"/>
   <line x1="0" y1="-166.2992" x2="0" y2="-177.6378" data-length="11.3386" transform="rotate(12.376)"/>
   <line x1="0" y1="-166.2992" x2="0" y2="-177.6378" data-length="11.3386" transform="rotate(14.144)"/>
   <line x1="0" y1="-166.2992" x2="0" y2="-177.6378" data-length="11.3386" transform="rotate(15.912)"/>
   <line x1="0" y1="-166.2992" x2="0" y2="-185.1969" data-length="11.3386" transform="rotate(17.68)" stroke-width="1.8898" stroke="#000000"/>
   <line x1="0" y1="-166.2992" x2="0" y2="-177.6378" data-length="11.3386" transform="rotate(19.448)"/>
   <line x1="0" y1="-166.2992" x2="0" y2="-177.6378" data-length="11.3386" transform="rotate(21.216)"/>
   <line x1="0" y1="-166.2992" x2="0" y2="-177.6378" data-length="11.3386" transform="rotate(22.984)"/>
   <line x1="0" y1="-166.2992" x2="0" y2="-177.6378" data-length="11.3386" transform="rotate(24.752)"/>
   <line x1="0" y1="-166.2992" x2="0" y2="-185.1969" data-length="11.3386" transform="rotate(26.52)" stroke-width="1.8898" stroke="#000000"/>
   <line x1="0" y1="-166.2992" x2="0" y2="-177.6378" data-length="11.3386" transform="rotate(28.288)"/>
   <line x1="0" y1="-166.2992" x2="0" y2="-177.6378" data-length="11.3386" transform="rotate(30.056)"/>
   <line x1="0" y1="-166.2992" x2="0" y2="-177.6378" data-length="11.3386" transform="rotate(31.824)"/>
   <line x1="0" y1="-166.2992" x2="0" y2="-177.6378" data-length="11.3386" transform="rotate(33.592)"/>
   <line x1="0" y1="-166.2992" x2="0" y2="-185.1969" data-length="11.3386" transform="rotate(35.36)" stroke-width="1.8898" stroke="#000000"/>
   <line x1="0" y1="-166.2992" x2="0" y2="-177.6378" data-length="11.3386" transform="rotate(37.128)"/>
   <line x1="0" y1="-166.2992" x2="0" y2="-177.6378" data-length="11.3386" transform="rotate(38.896)"/>
   <line x1="0" y1="-166.2992" x2="0" y2="-177.6378" data-length="11.3386" transform="rotate(40.664)"/>
   <line x1="0" y1="-166.2992" x2="0" y2="-177.6378" data-length="11.3386" transform="rotate(42.432)"/>
   <line x1="0" y1="-166.2992" x2="0" y2="-185.1969" data-length="11.3386" transform="rotate(44.2)" stroke-width="1.8898" stroke="#000000"/>
  </g>
  <g data-label-step="10" data-angle="85" data-r="192.7559" text-anchor="middle" font-size="18.8976" font-family="Arial" title="Value labels" class="label" stroke="none" fill="#000000" data-label-start="0">
   <text data-keep-angle="absolute" transform="rotate(-42.5) rotate(42.5,0,-192.7559) translate(15.1181,34.0157)" y="-192.7559" dy="0.3em" stroke="none">0</text>
   <text x="0" y="-192.7559" text-anchor="middle" dy="0.3em" stroke="none" transform="rotate(-26.5)" data-anchor="true">2</text>
   <text x="0" y="-192.7559" text-anchor="middle" dy="0.3em" stroke="none" transform="rotate(-9)" data-anchor="true">4</text>
   <text x="0" y="-192.7559" text-anchor="middle" dy="0.3em" stroke="none" transform="rotate(9)" data-anchor="true">6</text>
   <text x="0" y="-192.7559" text-anchor="middle" dy="0.3em" stroke="none" transform="rotate(26.5)" data-anchor="true">8</text>
   <text x="0" y="-192.7559" text-anchor="middle" dy="0.3em" stroke="none" transform="translate(-22.6772,34.0157) rotate(42.5)">10</text>
  </g>
  <text text-anchor="middle" font-weight="normal" font-size="33.6378" font-family="Tahoma, Geneva, sans-serif" y="0" title="Center label" fill="#000000" class="label" dy="0.3em" transform="translate(0,-75.5906)" stroke="none">A</text>
  <path stroke-width="1.1339" data-top-cut="0" data-height="224.126" data-width="280.4409" d="M0 0 H -140.2205 V -224.126 L -140.2205 -224.126 H 140.2205 L 140.2205 -224.126 V 0 Z" stroke="#000000" title="Scale Plate" class="plate plate-rectangular-top"/>
  <path data-r="35.9055" data-cy="0" data-cx="0" title="center" d="M-35.9055,0a35.9055,35.9055 0 1,0 71.811,0a35.9055,35.9055 0 1,0 -71.811,0M0 -35.9055 V35.9055 M-35.9055 0 H35.9055" fill="none" stroke="#000000" stroke-width="1.1339" class="circlecnt"/>
  <path transform="translate(59.5276,-18.8976)" data-r="5.6693" data-cy="0" data-cx="0" title="hole" d="M-5.6693,0a5.6693,5.6693 0 1,0 11.3386,0a5.6693,5.6693 0 1,0 -11.3386,0M0 -5.6693 V5.6693 M-5.6693 0 H5.6693" fill="none" stroke="#000000" stroke-width="1.1339" class="circlecnt"/>
  <path data-r="5.6693" data-cy="0" data-cx="0" title="hole" d="M-5.6693,0a5.6693,5.6693 0 1,0 11.3386,0a5.6693,5.6693 0 1,0 -11.3386,0M0 -5.6693 V5.6693 M-5.6693 0 H5.6693" fill="none" stroke="#000000" stroke-width="1.1339" class="circlecnt" transform="translate(-59.5276,-18.8976)"/>
 </g>

</svg>
